<svg id="Flat" xmlns="http://www.w3.org/2000/svg" viewBox="0 0 256 256"><path d="M173.165 132.917a64.392 64.392 0 00-23.153-13.926 54.972 54.972 0 0016.626-10.703 49.633 49.633 0 000-73.243 57.135 57.135 0 00-77.276 0 49.633 49.633 0 000 73.243 54.972 54.972 0 0016.626 10.703 64.392 64.392 0 00-23.153 13.926 57.932 57.932 0 000 85.5 66.797 66.797 0 0090.33 0 57.932 57.932 0 000-85.5zm-78.326-30.46a41.635 41.635 0 010-61.58 49.136 49.136 0 0166.322 0 41.635 41.635 0 010 61.58 49.136 49.136 0 01-66.322 0zm72.85 110.127a58.798 58.798 0 01-79.378 0 49.934 49.934 0 010-73.835 58.798 58.798 0 0179.377 0 49.934 49.934 0 010 73.835z"/></svg>