<svg width="32" height="32" fill="none" xmlns="http://www.w3.org/2000/svg"><path d="M16 19a6.99 6.99 0 01-5.833-3.129l1.666-1.107a5 5 0 008.334 0l1.666 1.107A6.99 6.99 0 0116 19zm4-11a2 2 0 102 2 1.98 1.98 0 00-2-2zm-8 0a2 2 0 102 2 1.98 1.98 0 00-2-2z" fill="#000"/><path d="M17.736 30L16 29l4-7h6a1.998 1.998 0 002-2V6a1.998 1.998 0 00-2-2H6a1.997 1.997 0 00-2 2v14a1.997 1.997 0 002 2h9v2H6a3.999 3.999 0 01-4-4V6a3.999 3.999 0 014-4h20a3.999 3.999 0 014 4v14a3.999 3.999 0 01-4 4h-4.835l-3.43 6z" fill="#000"/></svg>