<svg id="Layer_1" version="1.1" viewBox="0 0 100.353 100.353" xml:space="preserve" xmlns="http://www.w3.org/2000/svg"><path d="M90.54 33.012L49.476 5.636a1.5 1.5 0 00-1.664 0L6.748 33.012a1.501 1.501 0 000 2.496l6.237 4.158v21.913c0 .511.26.987.69 1.263l34.399 22.053a1.5 1.5 0 001.655-.024l17.947-12.244v8.538L60.99 94.537a1.506 1.506 0 00.065 1.46c.273.441.757.711 1.276.711H76.02c.52 0 1.003-.27 1.276-.711.272-.442.298-.995.065-1.46l-6.686-13.372V70.58l11.377-7.762a1.5 1.5 0 00.654-1.239V40.73l7.833-5.222a1.501 1.501 0 00.001-2.496zM64.759 93.708l4.417-8.834 4.417 8.834h-8.834zM48.858 81.834L15.985 60.759V41.666l31.827 21.219a1.498 1.498 0 001.664 0l18.2-12.134v18.244L48.858 81.834zm30.849-21.047l-9.031 6.162V48.751l9.031-6.021v18.057zm.979-22.315a1.488 1.488 0 00-.574.383l-10.936 7.291-19.7-13.134a1.5 1.5 0 10-1.664 2.496l18.66 12.44-17.828 11.886-38.36-25.574 38.36-25.573 38.36 25.573-6.318 4.212z"/></svg>