<svg width="53" height="53" fill="none" xmlns="http://www.w3.org/2000/svg"><path d="M26.177 0C11.719 0 0 11.72 0 26.177c0 14.458 11.72 26.177 26.177 26.177 14.458 0 26.177-11.72 26.177-26.177C52.354 11.719 40.634 0 26.177 0zm0 47.808c-11.968 0-21.67-9.702-21.67-21.67 0-11.967 9.702-21.67 21.67-21.67 11.966 0 21.67 9.702 21.67 21.67 0 11.968-9.703 21.67-21.67 21.67z" fill="#fff"/><path d="M26.177 23.143L15.9 13h-3.12v26.264h4.507l-.002-18.983 8.757 8.669 13.261-12.83V13h-2.947l-10.18 10.142z" fill="#fff"/><path d="M18.977 24.703v5.85l7.064 7.065 8.829-9.008-.075 10.655h4.508V18.332L26.042 31.551l-7.065-6.848z" fill="#fff"/></svg>