<svg width="88" height="65" fill="none" xmlns="http://www.w3.org/2000/svg"><path d="M88 .134H0v64h88v-64z" fill="#C4DD1F"/><path fill-rule="evenodd" clip-rule="evenodd" d="M33.647 37.805c-2.82 2.06-6.593 2.328-8.127 2.328-10.662 0-12.52-6.178-12.52-9.813h5.858c0 1.656.888 4.765 6.219 4.765 2.908 0 6.143-.726 6.143-3.798 0-2.3-2.224-2.866-5.334-3.634l-5.896-1.452c-4.159-1.008-6.547-3.477-6.547-7.918 0-3.232 1.782-9.007 11.275-9.007 4.384 0 7.195 1.41 8.93 3.272v-2.506h5.697V25.88l7.184-8.244h6.99l-7.633 8.402 7.838 13.33h-6.83l-5.173-9.33-2.375 2.461-.007 6.87h-5.692v-1.563zM22.254 20.907l7.146 1.74c1.527.384 3 .858 4.247 1.586v-5.467h-3.4c-.16-1.331-.646-4.442-5.977-4.442-2.343 0-5.13.89-5.13 3.514 0 2.3 1.898 2.787 3.114 3.069z" fill="#65656D"/><path d="M14.835 53.803c.2.08.654.214 1.16.214 1.534 0 2.281-.747 3.161-2.681l3.201-6.988H20.13l-2.107 5-2.147-5h-2.308l2.788 5.868c.186.386.44.813.44 1.227 0 .426-.32.813-.96.813-.387 0-.747-.106-1-.213v1.76zm11.938-3.988c-.293.08-1.12.2-1.573.2-.84 0-1.054-.347-1.054-1.347v-1.707h-1.88v2.094c0 1.467.787 2.387 2.307 2.387.867 0 1.827-.213 2.2-.307v2.708h1.88V46.96h-1.88v2.854zm9.739 4.028c-.253-.587-.24-1.24-.24-1.867v-2.974c0-1.92-1.614-2.24-3-2.24-1.988 0-3.081.786-3.188 2.32h1.774c.133-.787.493-1.053 1.36-1.053.84 0 1.24.293 1.24.92 0 .56-.453.667-1.68.827-1.36.173-3 .386-3 2.187 0 1.294.933 2.08 2.453 2.08.827 0 1.64-.28 2.227-.867.027.307.04.414.134.667h1.92zm-2.067-3.347v.773c0 .987-.694 1.534-1.68 1.534-.654 0-1.04-.347-1.04-.92 0-.84.733-.92 1.386-1.027.48-.08.894-.107 1.334-.36zm9.885.694h-1.827c-.147.906-.654 1.386-1.467 1.386-1.014 0-1.6-.787-1.6-2.16 0-1.414.613-2.24 1.64-2.24.733 0 1.227.426 1.36 1.186h1.854c-.16-1.6-1.387-2.6-3.227-2.6-2.134 0-3.535 1.467-3.535 3.694 0 2.147 1.387 3.56 3.508 3.56 1.827 0 3.054-1.04 3.294-2.827zm6.69-2.775V46.96h-6.415v1.454h2.267v5.428h1.88v-5.428h2.268zm7.282 5.428V46.96h-1.88v2.494h-2.655V46.96h-1.88v6.882h1.88v-2.895h2.654v2.895h1.88zm7.905 0V46.96H64.06l-2.454 4.654V46.96h-1.814v6.882h2.148l2.454-4.655v4.654h1.813zm8.493 0l-3.041-4.215 2.667-2.667H72.1l-2.52 2.72v-2.72h-1.854v6.882h1.853v-2.108l.84-.853 1.988 2.96H74.7z" fill="#65656D"/></svg>